<?xml version="1.0" encoding="utf-8"?>
<!-- Generator: Adobe Illustrator 23.0.1, SVG Export Plug-In . SVG Version: 6.00 Build 0)  -->
<svg version="1.1" id="Layer_1" xmlns="http://www.w3.org/2000/svg" xmlns:xlink="http://www.w3.org/1999/xlink" x="0px" y="0px"
	 viewBox="0 0 1345.9 398.6" style="enable-background:new 0 0 1345.9 398.6;" xml:space="preserve">
<style type="text/css">
	.st0{font-family:'Gilroy-Bold';}
	.st1{font-size:42.1396px;}
</style>
<g>
	<path d="M719.9,317.1l-10.6,16.2c-22.2-2.5-46.4-4.1-72.5-4.2c-5.8,0-11.8,0-17.8,0.1c-19.1,0.4-37.2,1.6-54.2,3.4l-10.2-15.5
		c0.5-0.1,0.9-0.1,1.4-0.2c4.2-0.5,8.5-1,12.8-1.5c1-0.1,2-0.2,3-0.3c1-0.1,1.7-0.8,1.8-1.8l0.2-2.1l1.8-17.1l0.2-1.9
		c0.1-1.3,1.2-2.3,2.5-2.4c1.6-0.1,3.2-0.2,4.8-0.3c1.6-0.1,3.2-0.2,4.8-0.3c1.3-0.1,2.5,0.8,2.8,2.1l1,4.6l3.4,15l0.5,2.3v0l0,0
		c0.4,0,0.8,0,1.2-0.1c0.4,0,0.8,0,1.2-0.1h0l2.3-0.1c0.7,0,1.4-0.1,2.1-0.1c1.3-0.1,2.7-0.1,4-0.2c1.3-0.1,2.6-0.1,3.9-0.2
		c0.6,0,1.2,0,1.8-0.1c0.3,0,0.7,0,1,0c0.9,0,1.8-0.1,2.7-0.1c3-0.1,6-0.2,9-0.2c0.1,0,0.2,0,0.3,0h0.5c0,0,0,0,0,0
		c0.3,0,0.5-0.3,0.6-0.5l0.2-1l1.9-11.1l1.5-9.1c0.2-1.3,1.3-2.3,2.6-2.3c1.4,0,2.9,0,4.3,0h0.5c1.6,0,3.2,0,4.8,0
		c1.3,0,2.4,1,2.6,2.3l1.4,8.3l1.9,11.6l0.2,1.4c0.1,0.3,0.3,0.5,0.6,0.6c0.3,0,0.5,0,0.8,0c2.4,0,4.8,0.1,7.2,0.2
		c0.1,0,0.2,0,0.3,0c1.2,0,2.3,0.1,3.4,0.1c0.3,0,0.5,0,0.7,0c1,0,2,0.1,3,0.1c0.6,0,1.2,0,1.8,0.1c0.6,0,1.2,0,1.8,0.1
		c1.2,0,2.4,0.1,3.6,0.2c0.6,0,1.2,0.1,1.9,0.1c0.7,0,1.4,0.1,2.1,0.1c1.1,0.1,2.2,0.1,3.3,0.2v0l0,0h0l0.8-3.7l4.2-18.1
		c0.3-1.3,1.5-2.2,2.8-2.1c1.6,0.1,3.2,0.2,4.8,0.3c1.6,0.1,3.2,0.2,4.8,0.3c1.3,0.1,2.4,1.1,2.5,2.4l1.8,16.9l0.6,5.2
		c0,0.3,0.3,0.6,0.6,0.6c0.3,0,0.6,0.1,1,0.1c1.2,0.1,2.4,0.3,3.6,0.4c2.1,0.2,4.3,0.5,6.4,0.7c0.6,0.1,1.1,0.1,1.7,0.2
		c0.2,0,0.5,0,0.7,0.1c0.5,0,1.1,0.1,1.6,0.2c0.9,0.1,1.8,0.2,2.7,0.3C719.5,317,719.7,317,719.9,317.1z"/>
	<path d="M678.9,313.1L678.9,313.1L678.9,313.1z"/>
	<path d="M678.9,313.1L678.9,313.1L678.9,313.1z"/>
	<polygon points="595.8,313.1 595.7,313.2 595.7,313.1 	"/>
	<path d="M625.6,312C625.6,312,625.6,312,625.6,312l-0.5,0L625.6,312z"/>
	<path d="M499.9,327.3c-0.2,0-0.4,0.1-0.6,0.1v0C499.5,327.4,499.7,327.3,499.9,327.3z"/>
	<polygon points="595.8,313.1 595.7,313.2 595.7,313.1 	"/>
	<path d="M625.6,312C625.6,312,625.6,312,625.6,312l-0.5,0L625.6,312z"/>
	<polygon points="665.2,63 665.1,63.1 637.3,106 609.5,63.1 609.5,63 609.5,62.9 637.3,19.9 665.1,62.9 	"/>
	<path d="M643.6,206.6c-1.5-2.9-3.1-5.9-4.8-9c-0.7-1.3-1.4-2.6-2.1-3.9c-2-3.7-4-7.6-6.1-11.6c-0.2-0.3-0.3-0.6-0.5-0.9
		c-8.1-15.2-16.9-31.9-25.5-48.1c-7.2-13.6-14.2-26.8-20.3-38.3c-5.2-9.8-9.7-18.4-13.3-25.1c-0.3-0.5-0.5-0.9-0.9-1.3
		c-3.5-4.3-10.6-3.9-13.3,1.3c-16,30.3-52.5,99.1-73.4,138.6c-0.7,1.3-1.3,2.5-2,3.7c-1.9,3.7-3.7,7-5.3,10
		c-0.4,0.7-0.8,1.5-1.2,2.2c-0.4,1-0.6,2.2-0.6,3.3c0,2.8,1.2,5.3,3.1,7c1.3,1.2,3,2.1,4.9,2.4h147.3c0.9-0.4,1.7-1,2.4-1.8l0,0
		c0.5-0.5,0.8-1,1.2-1.7c0.2-0.5,0.5-0.9,0.8-1.5c0.7-1.4,1.6-3,2.6-4.9c0.5-1,1.1-2,1.7-3.1c1.3-2.6,2.9-5.4,4.5-8.5
		c0.2-0.4,0.5-0.9,0.7-1.3c0,0,0,0,0,0c0.3-0.6,0.5-1.2,0.7-1.8c0,0,0,0,0,0C644.8,210.4,644.6,208.4,643.6,206.6z M596.3,181.5
		h-64.7c-5.3,0-8.8-5.7-6.2-10.4l4.6-8.6l27.7-51.7c2.7-5,9.8-5,12.5,0l0.5,1l16.1,29.9l15.7,29.3
		C605.1,175.8,601.6,181.5,596.3,181.5z"/>
	<path d="M799.5,224.3C799.5,224.3,799.5,224.3,799.5,224.3c-0.2-0.4-0.4-0.8-0.6-1.1c-1.3-2.4-2.6-4.9-4-7.6
		c-1.2-2.3-2.5-4.7-3.8-7.2c-22.3-42.1-60-113.3-74.2-140.1c-2-3.8-7.5-3.8-9.5,0c-0.4,0.8-0.8,1.5-1.3,2.4
		c-6,11.3-15.3,28.9-25.7,48.6c-2.8,5.3-5.7,10.7-8.6,16.2c-8.5,16.1-17.4,32.8-25.4,48c-2.6,4.9-5.1,9.6-7.5,14.1
		c-0.7,1.3-1.4,2.6-2.1,3.9c-2.1,3.9-4,7.6-5.9,11.1c-0.2,0.3-0.3,0.6-0.5,0.9l-0.2,0.4l-0.8,1.5l-6.5,12.2l-0.2,0.4l-1.2,2.2
		c-1.5,2.8,0.2,6,3.1,6.7c0.3,0.1,0.7,0.1,1,0.1h165.5c5,0,9-4,9-9C800.2,226.7,800,225.5,799.5,224.3z M744.4,184.7h-64.7
		c-5.3,0-8.8-5.7-6.2-10.4l15.4-28.6l12.2-22.8l4.7-8.8c2.7-5,9.8-5,12.5,0l7.1,13.3l16,29.9l9.1,17
		C753.2,178.9,749.8,184.7,744.4,184.7z"/>
	<path d="M807.9,276.7h-13.3c-5,0-9.4,3.4-10.7,8.2l-0.1,0.4l-0.7,2.8l-4.1,15.5c-0.1,0.3-0.2,0.6-0.5,0.9c-0.4,0.5-1,0.7-1.6,0.7
		h-11.4c-1,0-1.8-0.7-2.1-1.6l-3.5-13.6l-0.5-2l-0.8-3.2c-1.3-4.9-5.7-8.2-10.7-8.2h-12.2c-1.4,0-2.6,0.6-3.4,1.7
		c-0.3,0.4-0.6,0.9-0.7,1.5l-2.2,8.3l-1.1,4.3l-0.9,3.4l-1.4,5.4l-0.6,2.4c-0.3,0.9-1.1,1.6-2.1,1.6h-10.6c-1.4,0-2.6-0.9-3-2.3
		l-0.2-0.6l-1-4l-2-7.8l-0.7-2.8l-2.1-7.9c-0.5-1.9-2.2-3.2-4.1-3.2h-17.5c-2,0-3.7,1.3-4.1,3.2l-1.9,7.4l-0.2,0.9l-1.3,4.8l-2.6,10
		l-0.2,0.7c-0.2,0.9-1.1,1.6-2.1,1.6h-11.4c-0.7,0-1.3-0.3-1.7-0.8c-0.2-0.2-0.3-0.5-0.4-0.8l-4.1-15.5l-0.8-3.2
		c-1.3-4.9-5.7-8.2-10.7-8.2h-12.3c-1.9,0-3.6,1.3-4.1,3.2l-1.3,5.1l-4.9,18.6c-0.1,0.2-0.2,0.4-0.3,0.6c-0.4,0.6-1,1-1.8,1h-11.3
		c-1,0-1.8-0.7-2.1-1.6l-1.2-4.4v0l-0.3-1.2l-0.5-1.9l-2.9-11.1l-1.3-5.1c-0.5-1.9-2.2-3.2-4.1-3.2h-17.5c-1.4,0-2.7,0.7-3.5,1.8
		c-0.3,0.4-0.5,0.9-0.7,1.4l-1.3,4.8l-0.1,0.3l-4.9,18.7c-0.2,0.9-1.1,1.6-2.1,1.6H551c-1,0-1.8-0.7-2.1-1.6l-4-15.4l-0.9-3.3
		l-1.3-5.1c-0.2-0.8-0.6-1.5-1.2-2c-0.8-0.7-1.8-1.2-2.9-1.2h-17.5c-1.9,0-3.7,1.3-4.1,3.2l-1.3,5.1l-4.9,18.6
		c-0.3,0.9-1.1,1.6-2.1,1.6h-11.3c-0.7,0-1.4-0.4-1.8-1c-0.1-0.2-0.2-0.4-0.3-0.6l-4.9-18.6l-1.3-5.1c0-0.1-0.1-0.3-0.1-0.4
		c-0.3-0.7-0.7-1.3-1.2-1.8c-0.8-0.6-1.8-1-2.8-1h-19.2c-5.1,0-8.3-5.4-6-9.9c2.5-4.7,5-9.5,7.6-14.3c1.2-2.2,3.5-3.6,6-3.6h327.3
		c0.4,0,0.7,0,1.1,0.1c1.9,0.3,3.6,1.5,4.6,3.3c0,0,0,0,0,0c0,0,0,0.1,0,0.1c0,0,0,0,0,0.1c0,0.1,0.1,0.2,0.2,0.3
		c0.1,0.1,0.1,0.2,0.2,0.4c0.1,0.3,0.3,0.5,0.4,0.8c0.2,0.3,0.3,0.6,0.5,0.9c0.2,0.5,0.5,0.9,0.7,1.3v0c1.9,3.5,3.8,7.1,5.6,10.6
		C816.3,271.3,813,276.7,807.9,276.7z"/>
</g>
<path d="M1226.1,75l103.2,222.8c-19.6,7.6-25.9,5.4-33.6-11.6c-22.8-50.8-45.5-101.6-68.2-152.4c-1.2-2.6-2.9-4.8-5.7-9.3
	c-21.5,43.3-42.1,84.9-64,129.1c-20.9-44.2-40.5-85.8-61.1-129.3c-16.9,8.5-33.2,16.3-48.8,25.3c-2.1,1.2-2,9.7-0.3,13.6
	c17.9,40,36.5,79.8,54.8,119.6c2.6,5.6,5,11.5,7.7,17.6c-28.1,3.1-28,3-38.5-20.4c-17.1-38.1-34.3-76.2-52.6-116.8
	c-25,16.6-56.6,19.9-70.6,51.1c-8.5,19.2-20.8,36.7-34.1,53.6c30.3-64.6,60.6-129.2,91.4-194.8c10.1,21.7,20.3,43.8,31.4,67.8
	c19.5-12,38.4-23.1,56.6-35.3c3-2,3.2-8.8,3.8-13.5c0.6-5.1,0.1-10.4,2.8-16.3l64.7,134.9L1226.1,75z M1000.9,126.2
	c-10.6,18.1-20.6,35.1-30.6,52.2l3.2,2.3c7.4-4.6,14.7-9.5,22.3-13.9c21.2-12.4,21.3-12.4,9.6-34.4
	C1004.5,130.8,1003.2,129.4,1000.9,126.2z"/>
<g>
	<g>
		<g>
			<path d="M168.3,341.8c-2.1,0-4.3-0.8-5.9-2.4L16.9,193.8c-1.6-1.6-2.4-3.7-2.4-5.9c0-2.2,0.9-4.3,2.4-5.9L162.4,36.5
				c1.6-1.6,3.7-2.4,5.9-2.4c2.2,0,4.3,0.9,5.9,2.4L319.7,182c1.6,1.6,2.4,3.7,2.4,5.9c0,2.2-0.9,4.3-2.4,5.9L174.2,339.3
				C172.6,341,170.4,341.8,168.3,341.8z M34.5,187.9l133.8,133.8l133.8-133.8L168.3,54.1L34.5,187.9z"/>
		</g>
		<g>
			<path d="M285.3,242.8L247.5,205h-13.8l41.3,41.3L168.5,352.7L61.9,246.2l41.3-41.3H89.3l-37.8,37.8c-1.9,1.9-1.9,5,0,6.9
				L165,363.1c0.9,0.9,2.2,1.4,3.5,1.4c1.3,0,2.5-0.5,3.5-1.4l113.4-113.4c0.9-0.9,1.4-2.2,1.4-3.5
				C286.8,244.9,286.2,243.7,285.3,242.8z M168.5,139.7l22.1,22.1h13.8l-32.5-32.5c-1.9-1.9-5-1.9-6.9,0l-32.5,32.5h13.8
				L168.5,139.7z"/>
		</g>
	</g>
	<g>
		<path d="M175.9,238.7c-1.2-1.1-2.8-3.3-4.3-1.2c-3.5,5-8.1,10.4-6.5,16.8c1.4,5.7,7.3,4.4,11.9,4.2c0.2,0,0.3,0.1,0.5,0.1
			c0,3,1,4.2,0.1,5.9c-1.4,2.9-5.8,4.1-6.3,4.2c-0.4,0.1-0.7,0.2-1.1,0.2c0.2-1.7-1-2.8-2.8-4c-4.2-2.8-13.7-11.1-15.6-15.8
			c-1.6-3.8-0.3-10.5,11.7-22.7c-1.9,0.9-11.9,5.6-15.2,16.7c-1.2,3.9-1.4,8-0.5,12c1.7,6.4,6.9,12,16.3,17.9c1.2,2.1,3.1,4,5.1,4.7
			c0.1,0,0.2,0.1,0.3,0.1c0.6,0.2,1.2,0.3,1.8,0.3c0.7,0,1.7-0.1,3.1-1c1.8-1.2,3.4-3,5.2-7.3c1.5-3.5,4-9.4,3.5-13.3
			C184,249.3,181,243.5,175.9,238.7z M174,251.6c-1.8,0-3.8-0.1-3.9-2.4c-0.1-2.3,1.3-4.1,2.8-5.7h0v0c2,0.6,3.5,2.2,3.9,4.2
			C177.6,250.2,176.7,251.6,174,251.6z"/>
		<path d="M163.2,221.4c0.4-5.6,3.6-9,9-9c5.4,0,8.7,3.3,9.1,8.8c0.4,5-4.6,10.1-9.3,9.4C166.8,229.9,163.5,226.9,163.2,221.4z
			 M172.4,216.1c-2.8,0-5.1,2.2-5.3,5c-0.3,2.9,1.1,5.2,4.4,5.5c3.6,0.3,5.7-1.8,5.8-5C177.5,218.7,175.6,216.7,172.4,216.1
			L172.4,216.1z"/>
	</g>
	<text transform="matrix(1 0 0 1 104.1641 198.2431)" class="st0 st1">RABAT</text>
</g>
</svg>
